<svg xmlns="http://www.w3.org/2000/svg" viewBox="0 0 600 800" width="600" height="800" role="img" aria-label="합성 예시 인물 일러스트">
  <title>합성 예시 인물</title>
  <defs>
    <linearGradient id="bg" x1="0" y1="0" x2="0" y2="1">
      <stop offset="0%" stop-color="#e7eef8"/>
      <stop offset="100%" stop-color="#c9d7ea"/>
    </linearGradient>
  </defs>

  <rect width="600" height="800" fill="url(#bg)"/>
  <ellipse cx="300" cy="742" rx="132" ry="20" fill="#0e2546" opacity="0.10"/>

  <!-- 신발: 기억 안 남 → 채도 없는 중립색 -->
  <rect x="246" y="700" width="44" height="26" rx="11" fill="#8b97a8"/>
  <rect x="310" y="700" width="44" height="26" rx="11" fill="#8b97a8"/>

  <!-- 하의: 회색 (contract gray #808080) -->
  <path d="M246 470h108v190a10 10 0 0 1-10 10h-30a10 10 0 0 1-10-10l-4-104-4 104a10 10 0 0 1-10 10h-30a10 10 0 0 1-10-10z" fill="#808080"/>

  <!-- 상의: 파랑 (contract blue #2f5da8) -->
  <path d="M300 250c34 0 62 6 84 18 16 9 24 24 26 44l8 74a12 12 0 0 1-12 13h-20l-6 85a12 12 0 0 1-12 11H232a12 12 0 0 1-12-11l-6-85h-20a12 12 0 0 1-12-13l8-74c2-20 10-35 26-44 22-12 50-18 84-18z" fill="#2f5da8"/>
  <path d="M300 250c14 0 26 1 37 3l-37 40-37-40c11-2 23-3 37-3z" fill="#24487f"/>

  <!-- 손 -->
  <circle cx="196" cy="498" r="20" fill="#d9b99c"/>
  <circle cx="404" cy="498" r="20" fill="#d9b99c"/>

  <!-- 목 / 얼굴 -->
  <rect x="279" y="212" width="42" height="52" rx="20" fill="#d9b99c"/>
  <ellipse cx="300" cy="158" rx="72" ry="82" fill="#e7c6aa"/>
  <path d="M228 152c0-48 32-80 72-80s72 32 72 80c0 12-4 20-8 22-6-34-30-52-64-52s-58 18-64 52c-4-2-8-10-8-22z" fill="#b9bfc9"/>
  <circle cx="274" cy="162" r="6" fill="#3d4250"/>
  <circle cx="326" cy="162" r="6" fill="#3d4250"/>
  <path d="M282 198q18 12 36 0" stroke="#b98f72" stroke-width="5" fill="none" stroke-linecap="round"/>

  <!-- 소지품: 갈색 지팡이 (contract brown #6e4b2d) -->
  <path d="M424 496v196" stroke="#6e4b2d" stroke-width="12" stroke-linecap="round"/>
  <path d="M424 500a26 26 0 0 0-52 0" stroke="#6e4b2d" stroke-width="12" fill="none" stroke-linecap="round"/>

</svg>
